<?xml version="1.0" encoding="UTF-8"?>
<svg width="180px" height="29px" viewBox="0 0 180 29" version="1.1" xmlns="http://www.w3.org/2000/svg" xmlns:xlink="http://www.w3.org/1999/xlink">
    <title>Logo / Main@2x</title>
    <g id="Symbols" stroke="none" stroke-width="1" fill="none" fill-rule="evenodd">
        <g id="Header-menu-/-white-bg" transform="translate(-360.000000, -65.000000)">
            <g id="Group-18">
                <g id="Group-15" transform="translate(360.000000, 13.000000)">
                    <g id="Logo-/-Main" transform="translate(0.000000, 52.000000)">
                        <g id="Group-7">
                            <polygon id="Fill-1" fill="#0098C4" points="83.0046082 28.8569661 76.0211014 28.8569661 63.0038959 5.27357627 62.9461973 5.17428814 62.8875123 5.27357627 49.8703068 28.8569661 42.8868 28.8569661 59.898526 0.0117966102 59.8931014 0.00196610169 59.9044438 0.00196610169 65.9869644 0.00196610169 65.9983068 0.00196610169 65.9928822 0.0117966102"></polygon>
                            <polygon id="Fill-2" fill="#0098C4" points="89.8949589 28.8569661 96.8779726 28.8569661 96.8779726 0.00245762712 89.8949589 0.00245762712"></polygon>
                            <polygon id="Fill-3" fill="#000000" points="0.130980822 28.8569661 7.18204932 28.8569661 7.18204932 16.6931864 29.0128438 16.6931864 29.0128438 28.8569661 35.9963507 28.8569661 35.9963507 0.00196610169 29.0128438 0.00196610169 29.0128438 10.9492203 7.18204932 10.9492203 7.18204932 0.00196610169 0.130980822 0.00196610169"></polygon>
                            <polygon id="Fill-4" fill="#000000" points="107.060893 28.8569661 136.620838 28.8569661 136.620838 23.450678 114.111962 23.450678 114.111962 0.00196610169 107.060893 0.00196610169"></polygon>
                            <path d="M179.536241,22.0317424 L179.536241,6.82738644 C179.536241,1.28592881 177.705666,0.00206440678 172.078323,0.00206440678 L149.908734,0.00206440678 C144.281392,0.00206440678 142.450816,1.28592881 142.450816,6.82738644 L142.450816,22.0317424 C142.450816,27.5053695 144.213337,28.8565729 149.908734,28.8565729 L172.078323,28.8565729 C177.705666,28.8565729 179.536241,27.5053695 179.536241,22.0317424 L179.536241,22.0317424 Z M149.43383,23.3156068 L172.553721,23.3156068 L172.553721,5.34101356 L149.43383,5.34101356 L149.43383,23.3156068 Z" id="Fill-5" fill="#000000"></path>
                        </g>
                    </g>
                </g>
            </g>
        </g>
    </g>
</svg>