<?xml version="1.0" encoding="UTF-8"?> <svg xmlns="http://www.w3.org/2000/svg" width="164" height="217" viewBox="0 0 164 217" fill="none"><path d="M144.618 79.1998C156.154 85.9868 163.907 98.5221 163.932 112.877C163.969 134.484 146.484 152.031 124.877 152.068C103.269 152.106 85.7225 134.62 85.6847 113.013C85.6597 98.6587 93.3683 86.0964 104.881 79.2691L116.123 98.2666C116.405 98.7431 116.245 99.3554 115.787 99.6669C111.536 102.561 108.748 107.443 108.758 112.973C108.773 121.837 115.972 129.011 124.836 128.995C133.701 128.98 140.874 121.781 140.859 112.917C140.849 107.387 138.044 102.515 133.783 99.6355C133.324 99.3256 133.162 98.7139 133.442 98.2364L144.618 79.1998Z" fill="#128DFF"></path><path d="M58.2668 78.9714C52.6177 75.8052 46.1027 74 39.1662 74C17.5588 74 0.0426025 91.5162 0.0426025 113.124C0.0426025 134.731 17.5588 152.247 39.1662 152.247C60.8798 152.247 78.8229 133.813 78.2771 112.12H56.2529C55.6746 112.12 55.2192 112.609 55.2155 113.188C55.1596 121.833 47.9463 129.174 39.1662 129.174C30.3016 129.174 23.1155 121.988 23.1155 113.124C23.1155 104.259 30.3016 97.0729 39.1662 97.0729C41.4876 97.0729 43.694 97.5657 45.6863 98.4525C46.1732 98.6692 46.7542 98.505 47.0247 98.0459L58.2668 78.9714Z" fill="#8BDA67"></path><path d="M61.431 72.834C49.9062 66.0268 42.1757 53.4779 42.1757 39.1235C42.1757 17.5162 59.6919 0 81.2992 0C102.907 0 120.423 17.5162 120.423 39.1235C120.423 53.4779 112.692 66.0268 101.167 72.834L89.9591 53.8169C89.678 53.3399 89.8386 52.7279 90.2968 52.4171C94.5531 49.5307 97.3499 44.6537 97.3499 39.1235C97.3499 30.259 90.1638 23.0729 81.2992 23.0729C72.4347 23.0729 65.2485 30.259 65.2485 39.1235C65.2485 44.6537 68.0453 49.5307 72.3016 52.4171C72.7599 52.7279 72.9204 53.3399 72.6393 53.8169L61.431 72.834Z" fill="#FF2A44"></path><path d="M15.6999 173.626C20.7435 173.626 24.2425 174.839 26.1969 177.267C28.1828 179.694 29.1758 184.123 29.1758 190.553C29.1758 196.984 28.1828 201.413 26.1969 203.84C24.2425 206.267 20.7435 207.481 15.6999 207.481C10.6879 207.481 7.18887 206.267 5.20295 203.84C3.24856 201.413 2.27136 196.984 2.27136 190.553C2.27136 184.123 3.24856 179.694 5.20295 177.267C7.18887 174.839 10.6879 173.626 15.6999 173.626ZM15.6999 178.685C12.9575 178.685 11.0661 179.536 10.0259 181.238C9.01717 182.909 8.51281 186.014 8.51281 190.553C8.51281 195.092 9.01717 198.213 10.0259 199.915C11.0661 201.586 12.9575 202.421 15.6999 202.421C18.4739 202.421 20.3653 201.586 21.374 199.915C22.4142 198.213 22.9343 195.092 22.9343 190.553C22.9343 186.014 22.4142 182.909 21.374 181.238C20.3653 179.536 18.4739 178.685 15.6999 178.685Z" fill="black"></path><path d="M37.6461 183.697L38.0243 187.149C39.0961 185.951 40.5146 184.974 42.2799 184.217C44.0767 183.461 45.8262 183.082 47.5284 183.082C52.7926 183.082 55.4247 187.212 55.4247 195.471C55.4247 199.852 54.6997 202.942 53.2497 204.738C51.8312 206.535 49.5931 207.434 46.5354 207.434C43.4147 207.434 40.7353 206.677 38.4972 205.164C38.6233 206.772 38.6706 208.379 38.639 209.987V216.086H32.9177V183.697H37.6461ZM38.639 190.695V201.759C41.6021 202.421 43.6669 202.752 44.8332 202.752C46.5985 202.752 47.8121 202.28 48.474 201.334C49.1675 200.357 49.5143 198.387 49.5143 195.423C49.5143 192.523 49.1991 190.537 48.5686 189.466C47.9697 188.362 46.9137 187.811 45.4006 187.811C44.3604 187.811 43.3359 188.047 42.3272 188.52C41.35 188.961 40.1206 189.686 38.639 190.695Z" fill="black"></path><path d="M74.0565 197.693H64.5998C64.8204 199.711 65.3879 201.066 66.302 201.759C67.2162 202.421 68.7135 202.752 70.794 202.752C73.1581 202.752 75.9321 202.563 79.1159 202.185L79.636 205.873C77.461 206.913 74.2772 207.434 70.0847 207.434C65.8922 207.434 62.9133 206.504 61.1481 204.644C59.3828 202.784 58.5002 199.647 58.5002 195.234C58.5002 190.727 59.3671 187.574 61.1008 185.778C62.8345 183.949 65.7031 183.035 69.7064 183.035C73.3946 183.035 76.074 183.713 77.7447 185.068C79.4153 186.392 80.2507 188.394 80.2507 191.073C80.2507 195.486 78.186 197.693 74.0565 197.693ZM64.5052 193.674H72.4489C73.8359 193.674 74.5294 192.776 74.5294 190.979C74.5294 189.718 74.1984 188.835 73.5364 188.331C72.8744 187.827 71.6766 187.574 69.9428 187.574C67.9254 187.574 66.5227 188 65.7346 188.851C64.9781 189.671 64.5683 191.278 64.5052 193.674Z" fill="black"></path><path d="M88.2977 183.697L88.6759 187.102C92.2695 184.391 95.6109 183.035 98.7001 183.035C100.749 183.035 102.325 183.587 103.428 184.69C104.532 185.793 105.083 187.385 105.083 189.466V206.866H99.3148V191.215C99.3148 189.923 99.1414 189.056 98.7946 188.615C98.4479 188.142 97.8017 187.905 96.856 187.905C95.7842 187.905 94.681 188.126 93.5461 188.567C92.4429 189.009 91.0086 189.734 89.2433 190.742V206.866H83.4747V183.697H88.2977Z" fill="black"></path><path d="M131.476 201.759L131.996 206.204C129.38 207.024 126.038 207.434 121.972 207.434C117.086 207.434 113.65 206.173 111.664 203.651C109.678 201.129 108.685 196.763 108.685 190.553C108.685 184.343 109.678 179.977 111.664 177.456C113.65 174.934 117.086 173.673 121.972 173.673C125.597 173.673 128.718 174.02 131.334 174.713L130.767 179.205C128.024 178.984 125.093 178.874 121.972 178.874C119.261 178.874 117.401 179.71 116.393 181.38C115.415 183.019 114.927 186.077 114.927 190.553C114.927 195.029 115.415 198.103 116.393 199.774C117.401 201.413 119.261 202.232 121.972 202.232C125.975 202.232 129.143 202.075 131.476 201.759Z" fill="black"></path><path d="M161.749 174.24L152.528 205.211C152.213 206.314 151.488 206.866 150.353 206.866H144.774C144.27 206.866 143.812 206.724 143.403 206.441C143.024 206.125 142.772 205.716 142.646 205.211L133.379 174.24H139.478L146.145 198.733C146.24 199.112 146.382 199.726 146.571 200.577C146.76 201.397 146.902 201.996 146.996 202.374H148.178C148.367 201.365 148.667 200.152 149.077 198.733L155.649 174.24H161.749Z" fill="black"></path></svg> 