<svg width="450" height="126" viewBox="0 0 450 126" fill="none" xmlns="http://www.w3.org/2000/svg">
<g clip-path="url(#clip0_1008_94154)">
<mask id="mask0_1008_94154" style="mask-type:luminance" maskUnits="userSpaceOnUse" x="0" y="-1" width="450" height="122">
<path d="M450 -0.205078H0V120.205H450V-0.205078Z" fill="white"/>
</mask>
<g mask="url(#mask0_1008_94154)">
<path d="M22.0065 -0.205078C9.87212 -0.205078 0 9.67471 0 21.8191C0 33.9621 9.87212 43.8426 22.0065 43.8426C34.1415 43.8426 44.013 33.9621 44.013 21.8191C44.013 9.67471 34.1415 -0.205078 22.0065 -0.205078Z" fill="#0B23A9"/>
<path d="M46.9063 68.7593C38.979 68.7593 31.4887 66.7512 24.9141 63.2239V73.2159C24.9141 85.3413 34.5884 95.4024 46.7037 95.5193C58.9374 95.6371 68.9277 85.7127 68.9277 73.4969V63.2151C62.3463 66.7505 54.8439 68.7593 46.9063 68.7593Z" fill="#0B23A9"/>
<path d="M49.7858 21.821C49.7634 37.142 37.3359 49.5841 21.9722 49.6208C16.0454 49.6358 10.4839 47.7892 5.94531 44.5657C13.9897 58.9559 29.3391 68.7684 46.8898 68.735C72.3851 68.7562 93.4215 47.9837 93.846 22.5058L93.7854 22.4512C93.8109 21.8164 93.7792 22.3363 93.8109 21.8164C93.8223 9.66362 83.9347 -0.255314 71.8515 -0.213491C59.6536 -0.1658 49.7975 9.66827 49.7858 21.821Z" fill="url(#paint0_linear_1008_94154)"/>
<path d="M150.699 55.4734C150.699 67.9211 141.728 73.0641 132.592 73.0641C123.416 73.0641 114.484 67.9211 114.484 55.4734V32.9451H123.049V54.6978C123.049 62.2483 127.25 65.0238 132.592 65.0238C137.934 65.0238 142.135 62.2483 142.135 54.6978V32.9451H150.699V55.4734Z" fill="#0B23A9"/>
<path d="M167.661 19.8027H158.852V72.0431H167.661V19.8027Z" fill="#0B23A9"/>
<path d="M194.399 39.7194H184.285V59.3095C184.285 64.5334 187.711 64.4525 194.399 64.1259V72.0438C180.941 73.6757 175.477 70.0029 175.477 59.3095V19.8027H184.285V31.2308H194.399V39.7194Z" fill="#0B23A9"/>
<path d="M282.489 19.8027H273.68V72.0431H282.489V19.8027Z" fill="#0B23A9"/>
<path d="M352.008 39.7194H341.893V59.3095C341.893 64.5334 345.319 64.4525 352.008 64.1259V72.0438C338.55 73.6757 333.086 70.0029 333.086 59.3095V19.8027H341.893V31.2308H352.008V39.7194Z" fill="#0B23A9"/>
<path d="M358.493 35.7464H367.304V72.043H358.493V35.7464ZM358.901 27.9918C356.7 25.7067 356.7 22.2774 358.901 20.0747C361.104 17.7882 364.693 17.7882 366.896 20.0747C369.098 22.2774 369.098 25.7067 366.814 27.9918C364.611 30.1959 361.186 30.1959 358.901 27.9918Z" fill="#0B23A9"/>
<path d="M319.162 31.2306H328.542L312.882 73.3497C308.105 85.9581 304.481 88.3685 292.902 88.3685L292.981 80.1247C298.527 80.4505 301.627 77.7573 303.828 72.1252L304.236 71.3082L286.945 31.2306H296.569L308.722 60.8604L319.162 31.2306Z" fill="#0B23A9"/>
<path d="M379.812 66.9009C375.734 62.7375 373.695 57.677 373.695 51.6367C373.695 45.5148 375.734 40.4535 379.812 36.3724C383.972 32.2099 389.11 30.1689 395.228 30.1689C403.14 30.1689 410.154 34.2507 413.417 40.6984L405.831 45.1067C403.954 41.1888 400.04 38.8215 395.146 38.8215C391.557 38.8215 388.54 40.0453 386.092 42.4944C383.727 44.9427 382.504 47.9638 382.504 51.6367C382.504 55.3095 383.727 58.33 386.092 60.779C388.54 63.2273 391.557 64.4518 395.146 64.4518C399.958 64.4518 404.037 62.0028 405.994 58.1667L413.579 62.4927C410.072 69.0227 403.14 73.1044 395.228 73.1044C389.11 73.1044 383.972 71.0636 379.812 66.9009Z" fill="#0B23A9"/>
<path d="M435.387 47.8004C441.668 49.1882 449.824 51.8005 449.66 60.5346C449.66 64.4524 448.112 67.5545 445.094 69.758C442.075 71.9621 438.323 73.1049 433.757 73.1049C425.681 73.1049 419.727 69.5137 417.117 63.5545L424.703 59.1469C426.089 63.0646 429.106 65.0238 433.757 65.0238C438.405 65.0238 440.689 63.4728 440.689 60.4524C440.689 57.8408 437.263 56.2897 432.941 55.2284C426.823 53.6774 418.586 51.229 418.748 42.6582C418.748 38.903 420.135 35.8832 422.99 33.5982C425.844 31.3124 429.433 30.1696 433.674 30.1696C440.443 30.1696 445.909 33.3532 448.763 38.6581L441.341 42.8214C439.955 39.7193 437.344 38.169 433.674 38.169C430.331 38.169 427.72 39.6384 427.72 42.4949C427.72 45.1881 431.146 46.5766 435.387 47.8004Z" fill="#0B23A9"/>
<path d="M245.383 64.6975C249.054 64.6975 252.153 63.4729 254.6 61.0246C257.046 58.4933 258.27 55.3919 258.27 51.6374C258.27 47.8822 257.046 44.7801 254.6 42.3318C252.153 39.8011 249.054 38.5773 245.383 38.5773C241.713 38.5773 238.614 39.8011 236.166 42.3318C233.72 44.7801 232.497 47.8822 232.497 51.6374C232.497 55.3919 233.72 58.4933 236.166 61.0246C238.614 63.4729 241.713 64.6975 245.383 64.6975ZM258.27 31.2309H267.079V72.0438H258.27V66.1668C254.926 70.8193 250.195 73.1044 243.996 73.1044C238.369 73.1044 233.638 71.0636 229.641 66.9016C225.645 62.7382 223.688 57.5953 223.688 51.6374C223.688 45.5971 225.645 40.5358 229.641 36.3731C233.638 32.2099 238.369 30.1689 243.996 30.1689C250.195 30.1689 254.926 32.4554 258.27 37.0263V31.2309Z" fill="#0B23A9"/>
<path d="M209.453 38.6289C211.598 33.7008 215.729 31.2362 221.686 31.2362V40.5371C218.429 40.2983 215.569 41.0928 213.107 42.9214C210.645 44.6698 209.453 47.6106 209.453 51.6651V71.696H200.875V31.9519H209.453V38.6289Z" fill="#0B23A9"/>
<path d="M136.753 91.5958L127.188 108.626V119.514H121.729V108.626L112.203 91.5958H118.421L124.478 103.242L130.536 91.5958H136.753Z" fill="#00A2F3"/>
<path d="M156.163 114.689C158.714 114.689 160.865 113.851 162.579 112.137C164.294 110.422 165.169 108.228 165.169 105.555C165.169 102.884 164.294 100.691 162.579 98.9751C160.865 97.2595 158.714 96.3832 156.163 96.3832C153.612 96.3832 151.46 97.2595 149.746 98.9751C148.033 100.691 147.156 102.884 147.156 105.555C147.156 108.228 148.033 110.422 149.746 112.137C151.46 113.851 153.612 114.689 156.163 114.689ZM156.163 120.074C152.138 120.074 148.71 118.678 145.88 115.886C143.09 113.054 141.695 109.624 141.695 105.555C141.695 101.488 143.09 98.0575 145.88 95.2661C148.71 92.4343 152.138 91.0386 156.163 91.0386C160.187 91.0386 163.615 92.4343 166.444 95.2661C169.275 98.0575 170.669 101.488 170.669 105.555C170.669 109.624 169.275 113.054 166.444 115.886C163.615 118.678 160.187 120.074 156.163 120.074Z" fill="#00A2F3"/>
<path d="M185.609 114.251H196.25V119.515H180.109V91.5958H185.609V114.251Z" fill="#00A2F3"/>
<path d="M216.421 114.689C218.971 114.689 221.123 113.851 222.837 112.137C224.55 110.422 225.427 108.228 225.427 105.555C225.427 102.884 224.55 100.691 222.837 98.9751C221.123 97.2595 218.971 96.3832 216.421 96.3832C213.87 96.3832 211.718 97.2595 210.004 98.9751C208.29 100.691 207.414 102.884 207.414 105.555C207.414 108.228 208.29 110.422 210.004 112.137C211.718 113.851 213.87 114.689 216.421 114.689ZM216.421 120.074C212.395 120.074 208.968 118.678 206.138 115.886C203.348 113.054 201.953 109.624 201.953 105.555C201.953 101.488 203.348 98.0575 206.138 95.2661C208.968 92.4343 212.395 91.0386 216.421 91.0386C220.445 91.0386 223.873 92.4343 226.702 95.2661C229.532 98.0575 230.927 101.488 230.927 105.555C230.927 109.624 229.532 113.054 226.702 115.886C223.873 118.678 220.445 120.074 216.421 120.074Z" fill="#00A2F3"/>
</g>
</g>
<defs>
<linearGradient id="paint0_linear_1008_94154" x1="26.6194" y1="67.955" x2="81.1282" y2="7.61932" gradientUnits="userSpaceOnUse">
<stop stop-color="#00DEF3"/>
<stop offset="1" stop-color="#0B23A9"/>
</linearGradient>
<clipPath id="clip0_1008_94154">
<rect width="450" height="126" fill="white"/>
</clipPath>
</defs>
</svg>
