<svg xmlns="http://www.w3.org/2000/svg" data-name="Layer 1" width="808.45707" height="588.76601" viewBox="0 0 808.45707 588.76601" xmlns:xlink="http://www.w3.org/1999/xlink"><path d="M525.06818,474.86213a6.146,6.146,0,0,1-4.45424-10.65252c.155-.61594.26615-1.05828.42112-1.67422q-.08318-.20115-.16733-.40189c-5.65823-13.49205-24.83459-13.399-30.44469.11311-4.97938,11.99269-11.319,24.00579-12.88,36.68606a48.82691,48.82691,0,0,0,.85712,16.79252,195.75752,195.75752,0,0,1-17.80728-81.30429,188.94489,188.94489,0,0,1,1.172-21.07831q.9709-8.60635,2.69393-17.09009a198.02575,198.02575,0,0,1,39.27021-83.9282,52.70011,52.70011,0,0,0,21.91788-22.74,40.19927,40.19927,0,0,0,3.65593-10.98522c-1.067.13995-4.02329-16.11057-3.21852-17.10758-1.487-2.25645-4.14846-3.3781-5.7725-5.58-8.07693-10.95063-19.20487-9.03861-25.01412,5.84245-12.40993,6.26331-12.53006,16.65059-4.91538,26.64078,4.84449,6.3558,5.51013,14.95594,9.76083,21.76034-.43741.55982-.89222,1.10214-1.3295,1.662a199.30427,199.30427,0,0,0-20.80231,32.95581c1.65249-12.90816-.78723-28.45907-4.9464-38.48337-4.73457-11.42162-13.6088-21.04094-21.42362-30.91492-9.38688-11.86017-28.63553-6.68416-30.2893,8.35047q-.024.21837-.04688.43657,1.74114.9822,3.40872,2.08514a8.33658,8.33658,0,0,1-3.36113,15.171l-.17.0262a82.94775,82.94775,0,0,0,2.1865,12.40218c-10.02545,38.771,11.61877,52.8922,42.5238,53.52655.68223.3498,1.34705.69961,2.02927,1.03208a203.43086,203.43086,0,0,0-10.95025,51.53236,192.94762,192.94762,0,0,0,.14,31.15383q-.02632-.18381-.05251-.36731a50.98481,50.98481,0,0,0-17.405-29.43962c-13.394-11.00271-32.31728-15.05442-46.76707-23.89845-6.95572-4.25728-15.869,1.24431-14.655,9.30854q.02907.19308.05909.38622a55.99735,55.99735,0,0,1,6.2797,3.026q1.74112.98244,3.40873,2.08514a8.3367,8.3367,0,0,1-3.36116,15.17118l-.17013.02612c-.1224.0175-.22741.03507-.34967.05264a83.02066,83.02066,0,0,0,15.27068,23.91191c6.26865,33.84557,33.19262,37.05676,61.99287,27.20059h.01756a203.37046,203.37046,0,0,0,13.66158,39.88252h48.8035c.175-.54224.33241-1.10206.48991-1.64438a55.45114,55.45114,0,0,1-13.50422-.80442c3.621-4.44315,7.2418-8.92129,10.86278-13.36428a3.03435,3.03435,0,0,0,.22741-.26242c1.83667-2.27386,3.69088-4.53046,5.52755-6.8044l.001-.00277a81.22191,81.22191,0,0,0-2.37992-20.69074Z" transform="translate(-195.77147 -155.61699)" fill="#f2f2f2"/><path d="M696.4673,499.54876a2.664,2.664,0,0,1-1.93073-4.61743l.18254-.72571q-.036-.08718-.07253-.1742a7.15409,7.15409,0,0,0-13.19654.049c-2.15836,5.19834-4.90633,10.40554-5.58295,15.90192a21.16465,21.16465,0,0,0,.37153,7.27888,84.85305,84.85305,0,0,1-7.71873-35.24212,81.89942,81.89942,0,0,1,.508-9.1366q.42086-3.7305,1.16771-7.40786a85.83623,85.83623,0,0,1,17.02205-36.37948,22.84344,22.84344,0,0,0,9.50052-9.85688,17.42517,17.42517,0,0,0,1.58469-4.76165c-.4625.06066-1.74393-6.98328-1.3951-7.41545-.64455-.97807-1.79819-1.46426-2.50214-2.41868-3.501-4.74666-8.32454-3.91787-10.84261,2.53246-5.37921,2.7149-5.43128,7.21736-2.13062,11.5477,2.09989,2.755,2.38842,6.4828,4.23092,9.43223-.18959.24266-.38674.47774-.57628.7204a86.39009,86.39009,0,0,0-9.017,14.285,35.91317,35.91317,0,0,0-2.14407-16.681c-2.05224-4.95081-5.89886-9.1204-9.28627-13.40037-4.06883-5.1409-12.41234-2.89731-13.12918,3.6196q-.01041.09465-.02032.18923.75471.42574,1.47754.90382a3.61358,3.61358,0,0,1-1.45692,6.576l-.07368.01136a35.95534,35.95534,0,0,0,.94775,5.37584c-4.34562,16.80566,5.03627,22.92663,18.43235,23.20159.29572.15163.58389.30326.87961.44737A88.17923,88.17923,0,0,0,666.9504,475.741a83.63611,83.63611,0,0,0,.06066,13.50393l-.02275-.15921a22.09985,22.09985,0,0,0-7.54435-12.76089c-5.80577-4.76923-14.00824-6.52548-20.27164-10.359A4.14751,4.14751,0,0,0,632.82,470.0007q.01258.08369.02561.16741a24.27189,24.27189,0,0,1,2.722,1.31166q.75471.42585,1.47755.90383a3.61362,3.61362,0,0,1-1.45693,6.57609l-.07374.01132c-.05306.00758-.09857.0152-.15157.02282a35.98607,35.98607,0,0,0,6.61923,10.36484c2.7172,14.67069,14.38765,16.06261,26.8714,11.79036h.00761a88.15267,88.15267,0,0,0,5.92174,17.28746H695.9372c.07588-.235.14409-.4777.21236-.71277a24.036,24.036,0,0,1-5.85353-.34869c1.56954-1.92592,3.139-3.867,4.70857-5.79287a1.31525,1.31525,0,0,0,.09858-.11375c.79612-.98563,1.59984-1.96377,2.396-2.94943l.00042-.0012a35.20632,35.20632,0,0,0-1.0316-8.9686Z" transform="translate(-195.77147 -155.61699)" fill="#f2f2f2"/><path d="M825.27391,532.49994a6.48017,6.48017,0,0,0-1.40067-8.92922,6.217,6.217,0,0,0-.87885-.53275l2.90487-44.11606-14.77963,2.56172,3.2945,44.88249a6.46217,6.46217,0,0,0,2.11669,7.60009,6.18428,6.18428,0,0,0,8.6445-1.328Q825.22556,532.56977,825.27391,532.49994Z" transform="translate(-195.77147 -155.61699)" fill="#a0616a"/><polygon points="721.93 577.344 712.029 577.343 707.319 539.153 721.932 539.154 721.93 577.344" fill="#a0616a"/><path d="M918.04985,743.28979l-30.447-.00116v-.385A11.85149,11.85149,0,0,1,899.45366,731.053h.00073l5.56152-4.21924,10.37659,4.21991,2.65784.00006Z" transform="translate(-195.77147 -155.61699)" fill="#2f2e41"/><polygon points="700.003 562.585 691.544 567.73 667.673 537.549 680.158 529.956 700.003 562.585" fill="#a0616a"/><path d="M901.44007,726.84544,875.42669,742.6671l-.20008-.32894A11.85147,11.85147,0,0,1,879.193,726.0548l.00062-.00038,2.55891-6.495,11.05836-1.78716,2.27079-1.38116Z" transform="translate(-195.77147 -155.61699)" fill="#2f2e41"/><path d="M763.50193,202.92758H196.77147a1,1,0,0,1,0-2H763.50193a1,1,0,0,1,0,2Z" transform="translate(-195.77147 -155.61699)" fill="#e6e6e6"/><path d="M646.42744,339.08356h-334.808a10.344,10.344,0,0,0,0,20.688h334.808a10.344,10.344,0,1,0,0-20.688Z" transform="translate(-195.77147 -155.61699)" fill="#3f3d56"/><path d="M536.42744,281.08356h-103.808a10.344,10.344,0,0,0,0,20.688h103.808a10.344,10.344,0,1,0,0-20.688Z" transform="translate(-195.77147 -155.61699)" fill="#3f3d56"/><ellipse cx="29.35484" cy="8.64507" rx="8.45661" ry="8.64507" fill="#e6e6e6"/><ellipse cx="58.56859" cy="8.64507" rx="8.45661" ry="8.64507" fill="#e6e6e6"/><ellipse cx="87.78234" cy="8.64507" rx="8.45661" ry="8.64507" fill="#e6e6e6"/><path d="M316.86523,171.09486a.99674.99674,0,0,1-.71484-.30078l-5.70606-5.833a.99954.99954,0,0,1,0-1.39844l5.70606-5.83252a1,1,0,0,1,1.42968,1.39844l-5.022,5.1333,5.022,5.13379a1,1,0,0,1-.71484,1.69922Z" transform="translate(-195.77147 -155.61699)" fill="#e6e6e6"/><path d="M326.45361,171.09486a1,1,0,0,1-.71484-1.69922l5.02148-5.13379-5.02148-5.1333a1,1,0,1,1,1.42968-1.39844l5.70557,5.83252a.99954.99954,0,0,1,0,1.39844l-5.70557,5.833A.99672.99672,0,0,1,326.45361,171.09486Z" transform="translate(-195.77147 -155.61699)" fill="#e6e6e6"/><path d="M712.96344,156.61789h-10.61a2.18934,2.18934,0,0,0-2.19,2.19v10.62a2.18934,2.18934,0,0,0,2.19,2.19h10.61a2.1979,2.1979,0,0,0,2.2-2.19v-10.62A2.1979,2.1979,0,0,0,712.96344,156.61789Z" transform="translate(-195.77147 -155.61699)" fill="#e6e6e6"/><path d="M686.96344,156.61789h-10.61a2.18934,2.18934,0,0,0-2.19,2.19v10.62a2.18934,2.18934,0,0,0,2.19,2.19h10.61a2.1979,2.1979,0,0,0,2.2-2.19v-10.62A2.1979,2.1979,0,0,0,686.96344,156.61789Z" transform="translate(-195.77147 -155.61699)" fill="#e6e6e6"/><path d="M737.46344,157.11789h-10.61a2.18934,2.18934,0,0,0-2.19,2.19v10.62a2.18934,2.18934,0,0,0,2.19,2.19h10.61a2.1979,2.1979,0,0,0,2.2-2.19v-10.62A2.1979,2.1979,0,0,0,737.46344,157.11789Z" transform="translate(-195.77147 -155.61699)" fill="#e6e6e6"/><path d="M522.54174,161.15787h-84.81a2.67,2.67,0,1,0,0,5.34h84.81a2.67,2.67,0,0,0,0-5.34Z" transform="translate(-195.77147 -155.61699)" fill="#e6e6e6"/><path d="M460.34233,414.92758h-84a15.5,15.5,0,0,0,0,31h84a15.5,15.5,0,0,0,0-31Z" transform="translate(-195.77147 -155.61699)" fill="#6c63ff"/><path d="M601.34233,414.92758h-84a15.5,15.5,0,1,0,0,31h84a15.5,15.5,0,0,0,0-31Z" transform="translate(-195.77147 -155.61699)" fill="#fff"/><path d="M601.34227,446.92758h-84a16.5,16.5,0,0,1,0-33h84a16.5,16.5,0,0,1,0,33Zm-84-31a14.5,14.5,0,0,0,0,29h84a14.5,14.5,0,0,0,0-29Z" transform="translate(-195.77147 -155.61699)" fill="#6c63ff"/><path d="M763.50193,520.18735H196.77147a1,1,0,0,1,0-2H763.50193a1,1,0,0,1,0,2Z" transform="translate(-195.77147 -155.61699)" fill="#e6e6e6"/><circle cx="24" cy="183.31059" r="10" fill="#e6e6e6"/><circle cx="506" cy="113.31059" r="10" fill="#e6e6e6"/><circle cx="118" cy="320.31059" r="10" fill="#e6e6e6"/><path d="M219.81843,387.412a69.25372,69.25372,0,0,1,39.731-16.88451,68.30036,68.30036,0,0,1,58.69691,25.66413c1.18177,1.50041-.927,3.63762-2.12132,2.12132A66.18285,66.18285,0,0,0,283.028,375.90215a65.31425,65.31425,0,0,0-61.08821,13.63116c-1.44428,1.27109-3.57409-.84277-2.12132-2.12132Z" transform="translate(-195.77147 -155.61699)" fill="#3f3d56"/><path d="M334.11451,384.30831l8.84263,24.18357a1.50786,1.50786,0,0,1-1.44642,1.89876l-28.29029-2.01634c-1.9147-.13646-1.9297-3.13753,0-3l28.29029,2.01634-1.44642,1.89876-8.84263-24.18357c-.664-1.81605,2.23412-2.599,2.89284-.79752Z" transform="translate(-195.77147 -155.61699)" fill="#3f3d56"/><path d="M915.77147,513.92758s8.18443,16.26231,5,24,2.61167,67.6831-.69417,70.34155-5.4332.53109-.86952,5.09477,6.56369-.43632,5.56369,6.56368-7,96-7,96l-13.69417.34155s-17.30583-43.34155-14.30583-73.34155l-17.13026-82.61765s-2.469,14.72-2.66935,18.16883-2.20039,4.44882-3.20039,4.44882c-5.00486,0-3.46457-.88976-2.73229,4.05512s-8.22586,44.52516-8.22586,44.52516l29.95815,69.41972-10,10-51.81975-75.79807-9.93489-77.0602s-2.75464-7.73228,0-7.937,4.31369.66929,3.53416-2.26772,15.22048-51.937,15.22048-51.937Z" transform="translate(-195.77147 -155.61699)" fill="#2f2e41"/><path d="M920.77147,515.92758c-2.31,5.35-10.18.45-28,2-2.06.18-4.09.27-6.11.29-11.95.13-23.12-2.14-32.16-2.81-6.51-.49-11.92-.15-15.73,2.52-10,7-13.96-14.66-13.96-14.66a27.38489,27.38489,0,0,1,3.96-16.34c5-8,10.12-27.01,3-34s-7.88-17.99-5-21,12.34-63.2,11-73c-1.06-7.73,10.88-10.21,15.96-10.91,1.36-.19,2.23-.25,2.23-.25l11.81,2.16,17,3,13.69.26s.19.09.55.25a112.67431,112.67431,0,0,1,17.76,10.49c8.08,6.09,2.11,96.99,2.11,96.99s-1.11,27.07,4.89,33.01S923.08146,510.57755,920.77147,515.92758Z" transform="translate(-195.77147 -155.61699)" fill="#3f3d56"/><path d="M861.77147,353.74271l-23,1s-31,62-27,66,8.08634,1.72928,3.04317,6.86464-10.04317,3.13536-7.04317,7.13536,7-.501,3,5.24948-1.12373,51.93539-1.12373,51.93539h15.81789s11.18211-38.799,10.244-43.49195-1.06187-8.70409,0-10.1985S861.77147,353.74271,861.77147,353.74271Z" transform="translate(-195.77147 -155.61699)" fill="#3f3d56"/><circle cx="680.17323" cy="154.70429" r="23.0557" fill="#a0616a"/><path d="M893.91148,330.17758l-9.14,1.75s8.5-13.72,8-20c-.5-6.28-7.34-8.53-7.34-8.53s-3.79.82-7.78,1.28a20.0613,20.0613,0,0,0-1.85-3.85,6.71588,6.71588,0,0,1-1.96,4.14,10.93536,10.93536,0,0,1-4.33-.5c-1.58-.72-1.55-1.97-1.03-3.14a41.62385,41.62385,0,0,0-14.82,4.07,40.89906,40.89906,0,0,1,.35-9.2c.22-.06.44-.12994.66-.2a20.41435,20.41435,0,0,0,3.92-1.71,6.75162,6.75162,0,0,1-3.7-1.74c.84-2.46,2.18-4.59,4.29-5.63a15.81549,15.81549,0,0,1,13.13-.35s-4.88995-3.57-3.09-5.03c.12.12.24.23.37.34.17.14.36.29.54.43,1.11.9,2.77-.37,2.99-1.73a4.58525,4.58525,0,0,1,.1-.50995c.03-.14.07-.28.11-.41a3.39422,3.39422,0,0,1,.12-.34c3.33-.8,13.4,2.45,17.27,9.61C890.72148,288.92758,917.77147,301.92758,893.91148,330.17758Z" transform="translate(-195.77147 -155.61699)" fill="#3f3d56"/><path d="M892.23776,528.16514a6.48015,6.48015,0,0,1,5.31009-7.31407,6.21573,6.21573,0,0,1,1.025-.07453L916.059,480.16988l11.99554,9.00594-23.35533,38.46843a6.4622,6.4622,0,0,1-5.343,5.80472,6.18429,6.18429,0,0,1-7.09363-5.1158Q892.249,528.24934,892.23776,528.16514Z" transform="translate(-195.77147 -155.61699)" fill="#a0616a"/><path d="M894.27147,363.74271l23,1s34,58,30,62-8.08635,1.72928-3.04318,6.86464,10.04318,3.13536,7.04318,7.13536-7-.501-3,5.24948-28.5,59.93539-28.5,59.93539l-14-7s13.62372-35.799,14.56186-40.49195,1.06186-8.70409,0-10.1985S894.27147,363.74271,894.27147,363.74271Z" transform="translate(-195.77147 -155.61699)" fill="#3f3d56"/><path d="M899.01146,353.43759l-32.24,74.49-13.04-79.91c1.36-.19,2.23-.25,2.23-.25l5.55-10.78,31.79,1.65,5.16,14.55005S898.65147,353.27756,899.01146,353.43759Z" transform="translate(-195.77147 -155.61699)" fill="#6c63ff"/><path d="M886.66148,519.21756c-11.95.13-23.12-2.14-32.16-2.81l11.27-56.48Z" transform="translate(-195.77147 -155.61699)" fill="#6c63ff"/><path d="M748.55849,743.193a1.18647,1.18647,0,0,0,1.19006,1.19h253.29a1.19,1.19,0,0,0,0-2.38h-253.29A1.18651,1.18651,0,0,0,748.55849,743.193Z" transform="translate(-195.77147 -155.61699)" fill="#ccc"/></svg>