<?xml version="1.0" standalone="no"?>
<!DOCTYPE svg PUBLIC "-//W3C//DTD SVG 20010904//EN"
 "http://www.w3.org/TR/2001/REC-SVG-20010904/DTD/svg10.dtd">
<svg version="1.0" xmlns="http://www.w3.org/2000/svg"
 width="700.000000pt" height="700.000000pt" viewBox="0 0 700.000000 700.000000"
 preserveAspectRatio="xMidYMid meet">
<metadata>
Created by potrace 1.14, written by Peter Selinger 2001-2017
</metadata>
<g transform="translate(0.000000,700.000000) scale(0.100000,-0.100000)"
fill="#000000" stroke="none">
<path d="M3255 6734 c-16 -2 -77 -9 -135 -15 -499 -52 -1022 -249 -1455 -546
-233 -161 -516 -421 -682 -628 -379 -474 -605 -992 -694 -1595 -26 -176 -36
-536 -20 -720 94 -1061 682 -1993 1595 -2529 475 -279 984 -423 1546 -438 251
-6 414 4 636 42 1351 229 2421 1297 2648 2645 34 200 46 345 46 550 0 710
-222 1377 -646 1943 -524 700 -1288 1148 -2169 1273 -104 14 -597 28 -670 18z
m400 -735 c-3 -114 -2 -214 1 -223 9 -24 24 -19 24 8 0 29 39 237 47 249 3 5
9 3 14 -4 7 -11 9 -9 10 6 l0 20 9 -20 c8 -22 7 -24 33 45 9 25 8 -90 -2 -150
-5 -30 -12 -100 -15 -155 -9 -146 9 -89 35 108 12 89 25 169 29 176 10 19 25
-109 15 -138 -3 -11 -4 -21 -1 -21 10 0 56 159 81 278 14 67 30 133 35 145 34
85 -22 -410 -81 -720 -12 -65 -21 -161 -24 -260 -2 -87 -6 -169 -9 -183 -3
-14 4 4 15 40 12 36 25 67 30 68 5 2 9 8 9 13 0 5 22 65 49 133 32 81 59 171
76 258 50 253 76 342 101 352 17 7 14 -36 -17 -248 -10 -71 -17 -132 -14 -134
3 -3 5 0 5 7 0 7 4 10 9 7 4 -3 18 29 31 72 19 64 24 73 30 52 6 -24 7 -24 17
-5 5 11 20 46 32 77 28 71 54 98 45 47 -12 -69 -35 -147 -79 -279 -25 -74 -45
-142 -45 -152 0 -24 17 -23 25 1 3 10 24 47 46 82 23 35 58 113 79 173 22 61
44 125 50 143 6 17 22 38 34 47 23 15 23 14 15 -27 l-7 -42 20 25 c11 14 24
25 29 25 5 0 19 14 30 30 l21 30 -7 -30 c-3 -16 -24 -70 -46 -120 -39 -90 -84
-234 -75 -242 2 -2 7 5 11 16 3 12 10 21 14 21 9 0 0 -58 -24 -149 -18 -69
-18 -74 -5 -66 6 3 7 -1 4 -10 -3 -8 -3 -27 0 -41 7 -26 8 -26 21 -8 7 11 41
94 75 184 97 257 205 498 217 486 5 -5 -7 -64 -23 -112 -3 -11 17 22 46 71
175 301 39 -34 -274 -677 -53 -109 -98 -198 -102 -198 -3 0 -3 15 1 33 6 30 5
29 -25 -18 -32 -48 -73 -151 -68 -167 6 -15 81 89 135 187 145 261 185 331
199 345 24 24 17 -3 -31 -127 -25 -64 -44 -120 -43 -125 5 -15 139 182 209
309 88 159 139 235 139 208 0 -13 15 3 43 45 62 97 119 172 125 166 2 -3 -32
-78 -77 -167 -46 -92 -72 -154 -61 -144 11 10 20 13 20 8 0 -23 -168 -286
-315 -493 -30 -41 -3 -18 110 95 83 83 163 165 178 184 15 18 30 32 32 29 3
-2 -11 -38 -30 -79 -38 -81 -38 -81 52 48 86 120 101 139 108 132 7 -8 -53
-122 -144 -272 -97 -160 -100 -169 -45 -107 84 96 283 295 288 289 14 -14
-160 -231 -371 -461 -69 -75 -135 -152 -146 -170 l-19 -33 23 20 c83 68 184
178 272 294 113 151 217 275 224 268 6 -7 -21 -58 -73 -139 -24 -38 -42 -68
-40 -68 2 0 49 53 104 118 107 126 142 161 142 144 0 -6 -29 -54 -64 -106
l-64 -95 47 34 c27 19 50 32 54 29 3 -3 62 49 133 116 141 134 189 170 140
104 -16 -21 -58 -73 -93 -115 -61 -74 -76 -98 -51 -83 14 9 5 -8 -28 -53 -32
-42 -30 -46 10 -22 19 11 38 19 42 17 5 -1 24 6 42 16 33 17 33 17 23 -3 -6
-11 -16 -23 -22 -26 -5 -4 -14 -17 -19 -28 -12 -31 -155 -200 -284 -336 -159
-167 -185 -200 -76 -95 127 121 238 221 274 247 27 19 29 19 23 3 -9 -22 -6
-20 83 55 73 61 262 204 290 219 72 38 -158 -182 -390 -375 -58 -48 -107 -89
-110 -92 -3 -3 13 2 34 11 22 9 41 14 44 12 4 -5 -144 -116 -258 -193 -41 -28
-84 -61 -95 -74 l-20 -23 35 21 c19 11 69 40 110 63 41 24 107 67 145 96 112
83 181 109 124 47 -30 -33 -15 -25 86 47 44 32 91 63 105 70 24 13 25 12 8 -7
-24 -26 -23 -36 1 -23 34 18 37 10 6 -16 l-30 -26 52 26 c29 14 59 26 67 26 9
0 56 25 106 55 208 126 237 128 77 4 -49 -38 -116 -94 -150 -125 l-62 -56 100
64 c55 36 120 75 145 88 l45 23 -20 -23 c-11 -13 -65 -59 -120 -103 -55 -44
-91 -77 -80 -72 11 4 36 9 55 10 19 2 49 6 65 10 l30 7 -25 -21 c-14 -11 -80
-49 -147 -83 -67 -35 -120 -64 -119 -65 1 -2 43 15 92 37 49 21 103 42 119 46
l30 6 -35 -26 c-71 -55 -363 -208 -573 -302 -49 -21 -98 -48 -109 -59 -12 -11
-33 -28 -47 -37 -26 -18 -26 -18 -3 -18 12 0 46 12 75 26 29 15 106 51 171 81
66 29 197 96 291 148 176 97 244 130 252 121 3 -2 -24 -26 -59 -51 -34 -26
-65 -49 -68 -52 -3 -2 33 14 79 36 159 77 132 40 -54 -74 -102 -63 -175 -115
-160 -115 3 0 29 12 57 26 28 14 70 32 92 40 l41 14 -32 -28 c-17 -15 -78 -56
-135 -90 -56 -35 -94 -61 -83 -58 206 58 397 107 438 111 l52 6 -36 -20 c-45
-25 -343 -124 -559 -186 -91 -26 -176 -54 -190 -62 l-25 -14 29 6 c26 6 28 5
16 -10 -8 -9 -48 -36 -89 -61 -55 -32 -70 -44 -52 -44 19 0 21 -2 11 -15 -20
-24 111 18 250 80 249 113 507 211 532 203 13 -5 -88 -65 -155 -93 -20 -8 -37
-20 -37 -25 0 -5 -14 -17 -31 -25 -17 -9 -29 -18 -27 -20 1 -2 41 5 88 16 128
28 271 51 278 45 3 -3 -10 -12 -29 -20 -56 -25 -6 -18 108 14 140 39 166 37
78 -6 -38 -19 -63 -34 -56 -34 30 0 -2 -14 -96 -40 l-98 -28 65 -2 c36 -1 88
-5 115 -9 l50 -7 -60 -21 c-57 -20 -58 -21 -25 -23 l35 -2 -40 -19 c-22 -10
-84 -33 -138 -50 -55 -17 -97 -32 -95 -33 1 -2 46 1 98 6 52 5 109 7 125 5
l30 -3 -30 -13 c-16 -7 -75 -22 -130 -32 -161 -31 -255 -52 -251 -56 2 -2 90
10 197 27 219 34 444 60 504 59 l40 -1 -40 -14 c-22 -8 -91 -25 -154 -37 -87
-18 -108 -26 -90 -32 22 -7 23 -7 4 -12 -11 -3 -22 -9 -25 -13 -10 -15 -147
-51 -363 -95 -121 -24 -223 -47 -226 -51 -11 -11 352 7 529 27 281 31 364 23
169 -16 -46 -9 -93 -21 -103 -27 -11 -6 -87 -18 -170 -27 -157 -18 -158 -21
-16 -36 111 -12 200 -28 200 -36 0 -4 16 -11 35 -15 20 -3 32 -11 29 -16 -4
-7 -61 -9 -153 -7 -80 2 -189 2 -241 0 -83 -3 -91 -4 -62 -13 65 -22 33 -30
-82 -23 -92 6 -119 4 -135 -7 -19 -14 -16 -16 49 -27 38 -7 72 -16 75 -21 3
-4 72 -11 155 -15 83 -4 153 -11 156 -16 3 -5 -6 -9 -20 -9 -48 0 -34 -16 24
-28 98 -21 86 -35 -21 -28 -52 4 -107 10 -124 13 -26 5 -28 4 -16 -11 10 -11
30 -16 75 -16 85 0 249 -19 259 -29 4 -4 -34 -12 -85 -16 -51 -4 -88 -9 -83
-11 109 -32 154 -48 150 -53 -4 -3 11 -14 32 -23 l38 -18 -60 5 -60 4 45 -16
c64 -24 31 -27 -99 -9 -62 9 -126 16 -144 15 l-32 -1 40 -13 c22 -7 86 -28
143 -45 110 -35 145 -57 71 -45 -87 13 -257 48 -395 80 -80 20 -181 36 -235
39 -122 8 -80 -8 81 -30 63 -8 144 -21 180 -29 36 -7 146 -29 245 -49 194 -39
355 -78 395 -96 20 -8 10 -10 -50 -6 -41 3 -69 2 -62 0 6 -3 12 -10 12 -16 0
-6 -21 -7 -52 -4 -29 3 -89 8 -133 11 l-80 5 55 -19 55 -19 -47 -1 c-59 -1
-307 30 -498 64 -80 13 -149 25 -155 24 -5 0 26 -12 70 -26 73 -24 77 -27 50
-33 -30 -7 -30 -7 -5 -13 14 -3 102 -24 195 -47 180 -43 285 -73 313 -90 32
-18 -58 -10 -210 19 -82 15 -148 24 -148 20 0 -8 146 -79 237 -116 45 -18 63
-31 67 -48 3 -12 21 -33 38 -45 l33 -22 -30 7 c-16 3 -95 32 -175 64 -199 80
-243 87 -114 18 114 -60 146 -81 139 -89 -3 -3 19 -20 50 -39 30 -18 55 -37
55 -41 0 -9 -69 16 -245 89 -71 30 -137 57 -145 60 -11 5 -10 0 4 -15 11 -12
24 -22 30 -22 6 -1 43 -16 81 -35 78 -37 63 -46 -35 -20 -30 8 -57 15 -59 15
-23 1 140 -93 279 -161 170 -83 286 -148 264 -149 -43 -1 -326 117 -603 251
-112 55 -209 99 -215 99 -6 -1 6 -10 26 -20 70 -37 56 -53 -22 -25 -119 42
-22 -23 210 -140 161 -81 216 -114 194 -115 -6 0 -31 7 -54 15 -54 19 -60 14
-18 -16 18 -13 61 -46 96 -73 51 -41 60 -52 46 -59 -20 -11 -91 14 -249 88
-63 30 -115 53 -115 51 0 -2 42 -27 93 -56 50 -28 128 -76 172 -104 44 -29
106 -70 138 -90 114 -75 71 -66 -122 25 -68 32 -117 51 -110 42 15 -18 14 -17
-39 4 -7 3 10 -16 38 -43 28 -27 52 -57 54 -66 1 -10 13 -29 26 -43 13 -14 19
-25 13 -25 -14 0 -110 69 -253 183 -154 123 -162 129 -127 91 15 -17 27 -34
27 -38 0 -10 9 -18 125 -101 120 -85 154 -114 135 -115 -26 0 -330 175 -545
316 -28 18 120 -157 314 -371 44 -49 88 -103 96 -120 7 -16 57 -73 109 -125
96 -95 120 -128 69 -95 -63 41 -256 198 -391 319 -152 135 -161 140 -75 38 29
-34 53 -67 53 -72 0 -21 -44 13 -159 124 -110 107 -211 186 -211 166 0 -5 4
-11 9 -15 5 -3 45 -56 89 -118 132 -186 146 -237 28 -102 -36 42 -66 74 -66
71 0 -2 20 -37 45 -77 25 -40 45 -77 45 -82 0 -5 23 -34 50 -64 28 -30 55 -64
61 -75 9 -17 8 -18 -8 -10 -26 14 -165 134 -255 220 -42 40 -79 69 -82 63 -3
-5 8 -35 24 -66 16 -31 28 -60 26 -64 -3 -4 31 -49 76 -101 140 -164 254 -317
219 -296 -20 13 -12 -3 47 -86 81 -115 107 -159 89 -152 -15 5 -72 68 -182
199 -32 39 -90 99 -129 135 -60 56 -67 60 -49 30 49 -83 72 -127 83 -155 l11
-30 -31 30 -32 30 33 -53 c17 -29 30 -55 27 -57 -3 -3 -31 22 -62 55 -31 34
-56 58 -56 55 0 -12 55 -113 90 -165 44 -66 73 -120 67 -126 -2 -3 -33 29 -68
71 -61 72 -91 97 -69 56 5 -11 10 -28 10 -38 0 -23 -22 9 -97 142 -31 55 -102
165 -158 245 -56 80 -119 170 -139 200 -65 99 -39 34 39 -95 64 -105 108 -198
93 -193 -7 3 -35 34 -63 71 -27 36 -51 64 -53 62 -7 -6 28 -75 85 -171 79
-130 148 -262 141 -269 -3 -4 -29 26 -58 64 -29 39 -54 71 -55 71 -1 0 8 -32
21 -72 13 -40 23 -84 22 -98 -1 -14 2 -41 6 -60 l7 -35 -22 25 c-29 33 -119
223 -204 432 -37 92 -72 166 -78 165 -6 -1 -29 26 -52 60 -22 33 -46 69 -52
80 -7 10 -3 -4 8 -32 11 -27 18 -57 16 -66 -3 -9 18 -59 45 -110 71 -137 155
-310 162 -339 7 -24 5 -23 -21 7 -16 18 -57 79 -92 138 -35 58 -65 104 -67
102 -7 -6 65 -215 103 -302 42 -95 65 -157 69 -190 1 -11 19 -69 39 -128 20
-60 34 -114 32 -120 -6 -18 -125 231 -215 453 -88 215 -256 589 -238 530 40
-129 101 -308 151 -440 34 -91 65 -178 69 -195 l6 -30 -24 29 -25 30 9 -40 c5
-21 9 -52 9 -69 l-1 -30 -19 40 c-10 22 -44 118 -75 212 -31 95 -58 173 -60
173 -2 0 -1 -28 3 -62 5 -49 4 -60 -7 -53 -10 6 -12 4 -7 -7 20 -53 87 -274
92 -305 7 -37 7 -37 -9 -16 -9 12 -24 37 -32 55 -19 42 -15 23 30 -132 60
-202 45 -189 -68 65 -13 29 -14 28 -21 -44 -5 -41 -11 -67 -15 -60 -12 23 -47
185 -70 324 -12 72 -43 204 -71 294 -27 90 -49 175 -49 190 l1 26 15 -25 c30
-50 5 14 -36 90 l-39 75 -1 -71 c0 -50 7 -92 25 -145 73 -213 185 -635 185
-693 l-1 -31 -14 26 c-7 14 -32 79 -55 144 -22 66 -46 122 -51 126 -6 4 -20
24 -30 45 l-19 39 5 -40 c2 -22 7 -119 11 -215 8 -203 -5 -220 -33 -45 l-18
110 -3 -102 c-1 -58 -7 -103 -12 -103 -6 0 -10 -13 -10 -29 0 -17 -4 -33 -10
-36 -5 -3 -10 -1 -10 5 0 6 -9 71 -20 143 -30 203 -49 379 -57 531 -4 100 -12
159 -28 207 l-21 67 4 -291 c4 -263 -9 -632 -23 -645 -14 -14 -18 24 -25 245
-10 281 -23 354 -34 193 -4 -58 -14 -163 -22 -235 -7 -71 -14 -202 -14 -290 0
-88 -5 -167 -10 -175 -8 -12 -10 -12 -10 5 0 11 -9 85 -20 165 -17 124 -19
194 -17 481 2 302 1 328 -10 250 -7 -47 -17 -99 -23 -115 -5 -16 -10 -66 -10
-112 0 -46 -4 -86 -10 -89 -6 -3 -10 -26 -10 -50 0 -53 -9 -82 -20 -65 -5 8
-10 -3 -14 -26 -4 -22 -12 -46 -17 -54 -7 -10 -9 37 -5 155 3 94 2 197 -2 230
l-8 60 -7 -55 c-3 -30 -8 -152 -10 -271 -3 -119 -9 -225 -15 -234 -11 -21 -16
8 -29 175 l-7 95 -7 -97 c-18 -255 -37 -210 -40 92 -2 235 -6 234 -28 -9 -11
-122 -31 -173 -32 -86 l0 50 -24 -50 -25 -50 5 55 5 55 -23 -75 c-13 -41 -33
-93 -45 -115 l-22 -40 5 60 c2 33 6 130 9 215 l4 155 -14 -120 c-22 -182 -63
-425 -75 -444 -24 -37 9 404 51 699 26 175 24 192 -5 53 -31 -148 -49 -208
-62 -206 -5 1 -16 -24 -23 -55 -7 -31 -17 -68 -23 -82 -10 -24 -11 -22 -16 20
l-6 45 -44 -112 c-24 -61 -52 -124 -63 -140 l-19 -28 6 30 c13 63 66 245 105
360 50 149 51 181 4 95 -20 -36 -41 -69 -48 -75 -7 -5 -23 -50 -36 -100 -12
-49 -37 -133 -54 -185 -41 -127 -46 -86 -11 97 38 203 38 207 2 98 -46 -138
-60 -159 -53 -77 3 34 8 75 12 90 3 16 -9 0 -30 -37 -58 -105 -76 -104 -36 1
11 28 18 53 17 54 -1 2 -22 -34 -47 -79 -67 -126 -91 -161 -99 -148 -5 7 -19
-17 -35 -57 -14 -38 -33 -78 -41 -88 -13 -17 -14 -16 -8 16 3 19 18 79 33 134
24 86 26 96 9 80 -10 -11 -40 -64 -68 -119 -55 -112 -100 -186 -101 -168 -1
33 119 336 233 591 31 67 54 122 52 122 -2 0 -15 -21 -31 -48 -62 -107 -178
-275 -182 -264 -2 7 22 65 53 128 50 103 110 253 102 260 -1 2 -25 -34 -52
-79 -67 -113 -194 -303 -211 -318 -28 -23 -14 15 51 141 36 68 65 131 65 139
0 18 102 185 192 314 66 95 123 195 116 203 -11 10 -248 -342 -314 -468 -181
-340 -260 -446 -163 -219 37 85 56 151 44 151 -3 0 -12 -15 -21 -32 -26 -52
-136 -219 -141 -215 -2 3 6 31 19 63 12 33 22 66 23 75 1 9 29 63 62 120 78
133 173 307 173 316 0 4 -44 -67 -98 -157 -135 -227 -236 -379 -247 -368 -8 7
74 169 176 350 52 90 94 168 95 175 1 6 22 40 46 75 25 35 73 117 107 183 l62
120 -48 -51 c-106 -112 -168 -189 -265 -331 -111 -162 -263 -369 -278 -378
-20 -12 -9 22 25 79 20 32 34 61 31 63 -3 3 4 23 15 44 11 22 18 39 16 39 -2
0 -31 -36 -66 -79 -34 -44 -69 -85 -77 -92 -33 -27 -11 21 54 122 84 129 90
139 70 119 -8 -8 -50 -55 -93 -105 -162 -185 -331 -355 -305 -305 14 28 117
166 162 218 35 41 37 53 2 21 -17 -15 -25 -19 -23 -9 5 22 -7 23 -42 4 l-32
-16 21 29 c11 15 32 39 47 53 15 14 35 41 45 61 11 20 53 82 94 138 42 55 76
104 76 107 0 9 -150 -115 -230 -191 -41 -39 -84 -77 -95 -85 -19 -15 -19 -15
-2 13 18 27 11 37 -11 15 -6 -6 -15 -9 -18 -5 -4 3 37 48 90 99 108 103 247
253 228 247 -6 -2 -100 -92 -209 -200 -175 -172 -263 -251 -263 -235 0 26 301
357 517 567 171 167 230 208 140 97 -56 -69 -67 -88 -36 -63 45 37 200 190
232 230 l32 40 -40 -25 c-109 -65 -156 -98 -234 -164 -208 -176 -237 -200
-259 -214 -37 -24 -38 -4 -1 36 18 20 56 61 84 91 38 42 28 35 -45 -30 -176
-158 -336 -286 -346 -276 -3 3 46 60 108 128 62 68 106 119 98 114 -18 -11
-133 -89 -219 -150 -69 -49 -97 -59 -63 -22 12 13 20 26 17 29 -3 2 35 37 84
77 77 62 141 128 141 145 0 2 -61 -25 -136 -61 -75 -36 -150 -67 -168 -68 -17
-2 -43 -6 -58 -10 -16 -4 -28 -5 -28 -2 0 3 29 23 64 46 35 22 67 45 71 51 3
6 41 33 83 62 64 42 189 136 227 170 26 23 -68 -20 -130 -60 -185 -119 -285
-174 -285 -158 0 10 148 124 290 224 74 52 140 99 145 104 30 29 -83 -33 -202
-110 -177 -114 -370 -228 -419 -247 l-39 -16 43 40 c49 45 368 264 484 331 42
25 85 54 95 63 10 10 27 24 38 32 11 8 -40 -8 -114 -36 -152 -56 -420 -143
-468 -152 -40 -8 -42 4 -6 32 l28 21 -55 -21 c-71 -27 -249 -89 -258 -89 -14
0 56 42 143 87 49 25 103 56 120 68 16 13 77 49 135 80 100 54 150 88 105 70
-54 -20 -105 -33 -105 -26 0 4 38 29 85 56 47 26 85 48 85 49 0 2 -48 -10
-107 -26 -147 -38 -220 -51 -238 -40 -12 6 -5 14 32 35 26 15 41 27 33 27 -11
0 -10 4 5 16 19 14 16 15 -30 9 -27 -3 -77 -2 -110 2 l-60 8 80 24 c44 13 112
38 150 56 39 17 97 42 129 55 55 22 58 24 34 31 -33 9 -113 -7 -298 -58 -167
-47 -241 -61 -224 -44 15 16 273 111 457 167 86 27 153 50 148 52 -5 2 -67
-13 -138 -32 -166 -46 -406 -102 -463 -109 l-45 -6 50 25 50 24 -45 -4 c-25
-3 -70 -8 -100 -11 -81 -9 -45 9 101 49 67 18 116 35 108 38 -23 8 55 26 216
48 83 12 159 25 170 30 11 6 65 17 120 25 55 9 113 21 128 27 16 6 83 26 150
44 l122 33 -75 -6 c-41 -3 -151 -23 -245 -44 -304 -69 -605 -116 -605 -96 0
10 175 62 305 92 66 15 126 31 133 35 8 3 -55 7 -140 8 -163 2 -257 10 -273
22 -5 4 -26 11 -45 16 l-35 7 35 10 c19 5 217 10 440 12 337 2 422 5 507 20
57 10 101 20 99 22 -2 3 -53 -2 -113 -11 -190 -27 -213 -28 -213 -18 0 6 26
19 58 30 l57 20 -98 1 c-69 1 -96 4 -91 12 4 8 -3 9 -22 5 -137 -28 -512 -57
-484 -37 11 8 2 11 -38 11 -68 0 -60 14 18 29 33 7 60 13 60 15 0 1 -35 1 -79
-2 -117 -7 -112 13 8 34 55 9 98 21 95 25 -4 7 80 29 114 29 9 0 24 5 32 10
10 6 -78 8 -250 4 -439 -11 -271 31 250 62 210 12 278 19 286 30 7 9 42 17 95
21 148 11 53 20 -286 26 -181 4 -346 10 -365 15 l-35 9 30 6 c54 13 179 26
239 27 33 0 57 2 55 5 -3 2 -66 18 -140 35 -179 41 -209 49 -209 59 0 16 99
21 212 12 62 -6 167 -12 233 -15 138 -5 82 4 -145 24 -222 19 -432 48 -444 61
-8 9 39 10 199 6 l210 -5 -94 33 c-52 18 -100 40 -107 49 -6 9 -15 16 -21 16
-5 0 -18 7 -29 15 -17 14 -15 14 26 9 62 -9 297 -67 459 -113 171 -49 179 -51
276 -55 l80 -4 -59 19 c-33 11 -64 23 -70 28 -11 9 -60 18 -246 47 -165 25
-249 45 -225 54 11 5 49 6 85 3 100 -6 373 -34 395 -39 11 -3 4 4 -15 14 -19
11 -82 29 -140 42 -175 37 -532 128 -652 167 -136 45 -115 55 50 25 59 -11
138 -23 176 -27 38 -3 119 -14 180 -25 61 -10 112 -17 114 -16 1 2 -35 14 -80
26 -110 31 -159 52 -134 58 12 3 -4 15 -53 39 -39 20 -69 38 -67 41 6 5 112
-19 231 -54 43 -13 80 -22 82 -21 1 2 -43 22 -98 46 -54 23 -109 51 -122 62
l-22 19 30 -6 c56 -12 218 -66 334 -111 102 -39 340 -107 348 -99 7 7 -150 66
-265 100 -285 86 -658 228 -610 234 13 2 102 -17 198 -41 96 -24 187 -44 201
-45 14 -1 77 -20 140 -43 225 -81 493 -160 542 -159 17 1 -18 26 -86 62 -33
18 -53 34 -47 38 21 13 -113 88 -275 155 -191 80 -410 184 -402 192 3 3 37 -4
74 -15 37 -11 88 -22 112 -25 l45 -6 -75 41 c-239 130 -384 216 -376 225 6 6
77 -22 207 -82 69 -32 135 -59 148 -60 12 -2 54 -19 92 -39 38 -20 72 -36 75
-36 3 0 -38 35 -92 78 -97 78 -133 112 -117 112 4 0 -5 14 -22 31 -23 24 -25
29 -9 23 43 -16 235 -143 400 -264 28 -20 66 -39 84 -42 l35 -5 -30 24 c-16
13 -72 49 -124 80 -109 64 -230 141 -230 147 0 4 25 -2 75 -19 l20 -6 -20 15
c-11 8 -51 38 -90 66 -38 27 -64 50 -58 50 7 0 10 7 6 17 -7 18 -14 22 97 -47
41 -26 118 -66 170 -89 52 -24 124 -59 160 -78 l65 -36 -60 62 c-33 34 -100
87 -150 118 -177 111 -360 241 -351 250 10 10 348 -179 514 -288 48 -32 39
-18 -18 25 -49 38 -69 67 -31 46 44 -23 28 -6 -56 59 -123 97 -170 140 -154
141 10 0 7 7 -9 25 -13 14 -19 25 -13 25 8 0 94 -49 198 -114 21 -14 18 -9
-10 15 -74 62 -150 139 -139 139 17 0 208 -130 352 -238 67 -51 122 -90 122
-87 0 21 -50 69 -176 170 -181 145 -374 313 -374 326 0 5 14 2 32 -7 29 -15
27 -11 -22 45 -29 34 -51 63 -48 66 4 4 131 -94 249 -195 l53 -45 -32 46 c-17
26 -65 83 -106 128 -80 87 -129 150 -106 136 8 -5 55 -43 105 -85 49 -41 115
-93 145 -114 30 -21 80 -60 110 -85 30 -26 64 -53 75 -61 19 -14 19 -14 6 3
-8 9 -11 21 -7 25 4 4 96 -84 204 -195 254 -260 332 -328 172 -149 -238 265
-268 301 -258 311 5 6 96 -70 220 -185 117 -108 98 -81 -74 106 -75 82 -150
166 -167 188 -48 60 -38 71 18 22 34 -29 18 -5 -56 86 -63 79 -82 117 -40 82
12 -10 55 -50 96 -89 69 -65 73 -67 51 -30 -62 109 -122 227 -117 231 11 11
155 -192 324 -456 23 -36 51 -74 64 -85 18 -17 17 -11 -10 35 -17 30 -61 111
-98 180 -36 69 -83 156 -104 193 -22 38 -39 72 -39 77 0 4 -12 29 -27 56 -21
38 -23 46 -10 41 9 -3 17 -4 17 -2 0 15 -45 113 -84 180 -80 140 -60 128 65
-38 51 -67 97 -122 103 -122 6 0 48 -56 93 -125 46 -69 94 -138 107 -155 14
-16 44 -67 68 -112 24 -46 47 -83 52 -83 5 0 18 -8 29 -17 39 -36 -66 153
-166 296 -102 147 -257 395 -257 413 0 5 4 6 10 3 9 -5 156 -191 203 -255 15
-21 16 -21 7 -3 -5 12 -10 27 -10 34 0 19 24 -6 81 -83 30 -40 56 -65 61 -60
5 5 -14 49 -43 103 -57 104 -92 180 -85 186 6 6 58 -63 135 -181 39 -61 71
-105 71 -99 0 21 -49 140 -115 277 -63 132 -120 284 -111 294 6 6 50 -65 124
-203 142 -265 248 -454 297 -530 29 -44 69 -110 89 -147 21 -37 41 -70 45 -73
17 -10 -28 124 -73 220 -53 111 -134 304 -147 350 -9 29 -9 29 10 10 11 -11
47 -69 81 -130 l61 -110 -6 60 c-4 33 -31 125 -61 205 -30 80 -57 161 -60 180
-6 35 -6 35 11 12 9 -13 46 -83 81 -155 36 -73 62 -121 60 -107 -23 124 -36
251 -30 302 8 71 14 64 44 -48 39 -147 51 -186 55 -182 2 2 -3 48 -10 103 -21
152 -4 144 41 -18 23 -81 29 -95 35 -74 4 14 -1 59 -12 103 -21 89 -24 118 -9
109 14 -8 13 -2 -9 106 -11 52 -22 121 -26 154 -9 88 7 54 70 -147 30 -93 56
-172 59 -175 2 -3 2 29 -1 71 -5 66 -4 76 9 71 20 -8 33 -37 84 -190 l43 -130
-5 70 c-5 66 -4 69 10 44 15 -25 79 -242 106 -359 10 -39 15 -49 20 -36 5 17
8 15 18 -10 6 -16 18 -56 26 -89 8 -33 24 -85 34 -115 11 -30 25 -86 33 -125
l14 -70 7 59 c4 33 4 64 -1 70 -46 56 -179 666 -206 946 -3 36 -8 81 -11 100
-11 70 16 14 45 -95 21 -79 30 -100 31 -75 1 60 20 10 51 -139 l28 -136 -6 99
c-5 74 -3 97 5 92 7 -4 12 -17 13 -29 0 -21 1 -21 9 -2 5 11 9 37 9 57 1 20 5
39 10 42 9 6 17 -46 26 -184 4 -47 13 -119 22 -160 20 -95 22 -104 29 -98 8 9
34 289 28 300 -8 13 7 368 16 368 19 0 68 -487 71 -705 1 -44 4 -91 9 -105 4
-14 8 92 8 235 2 304 19 593 40 660 13 42 23 -157 17 -356z"/>
<path d="M3101 5644 c0 -11 3 -14 6 -6 3 7 2 16 -1 19 -3 4 -6 -2 -5 -13z"/>
<path d="M3111 5604 c0 -11 3 -14 6 -6 3 7 2 16 -1 19 -3 4 -6 -2 -5 -13z"/>
<path d="M3121 5572 c-1 -7 12 -66 28 -130 39 -159 43 -185 29 -176 -7 5 -9 2
-6 -7 34 -86 44 -107 59 -129 10 -14 30 -70 45 -125 15 -55 30 -103 33 -107 3
-4 5 32 3 80 -2 51 -9 93 -16 102 -22 25 -83 189 -119 316 -48 170 -55 191
-56 176z"/>
<path d="M3810 5296 c-19 -138 -26 -153 -34 -81 -10 83 -17 94 -11 16 3 -35 6
-109 6 -165 l2 -101 13 95 c7 52 21 141 30 197 9 56 14 107 12 115 -3 7 -11
-27 -18 -76z"/>
<path d="M2720 5257 c0 -10 91 -177 96 -177 5 0 -48 107 -76 152 -11 18 -20
30 -20 25z"/>
<path d="M4122 5158 c-10 -29 -22 -66 -26 -83 -7 -28 -6 -29 9 -14 17 16 51
137 41 146 -2 2 -13 -20 -24 -49z"/>
<path d="M2469 5011 c49 -104 101 -175 101 -138 0 29 -67 149 -110 197 l-40
45 49 -104z"/>
<path d="M5120 5001 c-52 -44 -114 -102 -138 -130 l-43 -51 33 20 c29 17 260
240 248 240 -3 0 -48 -36 -100 -79z"/>
<path d="M2933 5047 c4 -10 7 -25 7 -32 0 -7 7 -15 15 -19 13 -5 13 -1 -1 27
-19 37 -30 50 -21 24z"/>
<path d="M4865 4909 c-22 -22 -32 -37 -23 -34 15 6 75 75 66 75 -2 0 -22 -18
-43 -41z"/>
<path d="M2115 4900 c10 -11 20 -20 23 -20 3 0 -3 9 -13 20 -10 11 -20 20 -23
20 -3 0 3 -9 13 -20z"/>
<path d="M4535 4909 c-4 -6 -5 -12 -2 -15 2 -3 7 2 10 11 7 17 1 20 -8 4z"/>
<path d="M2185 4846 c22 -19 44 -35 49 -36 16 0 -28 41 -59 57 -27 13 -26 11
10 -21z"/>
<path d="M3050 4863 c0 -10 11 -40 25 -68 22 -45 24 -47 19 -16 -7 37 -31 101
-39 101 -3 0 -5 -8 -5 -17z"/>
<path d="M2650 4830 c21 -40 112 -140 143 -156 l28 -15 -16 25 c-10 14 -21 24
-25 21 -5 -3 -17 10 -29 27 -27 44 -118 133 -101 98z"/>
<path d="M4612 4679 c-24 -23 -78 -80 -119 -128 -67 -76 -70 -80 -22 -35 30
27 74 68 99 89 25 22 44 44 42 49 -2 5 9 22 24 37 41 43 26 35 -24 -12z"/>
<path d="M4710 4697 c-18 -14 -73 -87 -66 -87 2 0 23 23 46 50 42 51 47 59 20
37z"/>
<path d="M3545 4625 c3 -38 5 -114 5 -167 0 -54 3 -98 8 -98 4 0 15 14 25 31
15 27 16 45 11 120 -4 49 -10 86 -15 84 -7 -5 -17 21 -33 80 -3 11 -3 -11 -1
-50z"/>
<path d="M4774 4637 c-61 -45 -194 -176 -194 -192 0 -11 157 110 193 149 37
40 82 97 75 95 -2 0 -35 -24 -74 -52z"/>
<path d="M3220 4669 c0 -25 86 -270 96 -272 16 -3 16 116 0 153 -9 21 -15 28
-16 17 0 -31 -21 -8 -51 57 -15 33 -28 54 -29 45z"/>
<path d="M3640 4604 c0 -32 5 -66 11 -74 7 -11 8 6 3 55 -8 88 -14 96 -14 19z"/>
<path d="M4248 4643 c-8 -10 -23 -31 -33 -48 -18 -29 -18 -30 1 -13 19 16 59
78 51 78 -2 0 -11 -8 -19 -17z"/>
<path d="M2000 4616 c7 -9 58 -45 113 -79 55 -34 116 -76 135 -94 19 -18 59
-46 90 -64 l57 -31 -30 32 c-37 40 -74 65 -244 169 -74 46 -129 75 -121 67z"/>
<path d="M2679 4595 c8 -11 27 -33 42 -50 15 -16 39 -48 54 -70 14 -22 58 -73
96 -113 56 -58 68 -67 63 -46 -6 22 -4 25 7 19 23 -14 -158 176 -219 230 -32
27 -50 41 -43 30z"/>
<path d="M5388 4559 c-43 -21 -78 -41 -78 -44 0 -5 159 72 169 81 14 13 -25
-2 -91 -37z"/>
<path d="M5130 4557 c-14 -12 -43 -37 -65 -55 -35 -30 -36 -32 -10 -19 17 9
48 34 70 56 42 44 45 54 5 18z"/>
<path d="M4116 4535 c-3 -9 -6 -22 -5 -28 0 -7 5 -1 10 12 5 13 8 26 5 28 -2
2 -6 -3 -10 -12z"/>
<path d="M1805 4519 c13 -20 135 -88 135 -75 0 3 -32 23 -70 45 -39 22 -68 36
-65 30z"/>
<path d="M1975 4494 c36 -28 61 -36 30 -10 -16 14 -34 26 -40 26 -5 -1 -1 -8
10 -16z"/>
<path d="M4018 4479 c-6 -19 -38 -84 -70 -146 -32 -61 -58 -114 -58 -118 0 -3
22 18 49 47 52 56 72 97 90 187 13 62 7 80 -11 30z"/>
<path d="M4097 4466 c-5 -15 -6 -31 -3 -34 8 -8 18 25 14 45 -3 13 -6 10 -11
-11z"/>
<path d="M4503 4467 c-35 -39 -37 -53 -2 -20 18 18 31 35 28 38 -3 3 -15 -5
-26 -18z"/>
<path d="M3221 4472 c-1 -7 9 -36 21 -63 14 -35 24 -46 29 -37 6 10 12 8 23
-7 9 -11 16 -17 16 -13 0 4 -15 27 -32 51 -18 24 -38 53 -45 63 -7 12 -12 14
-12 6z"/>
<path d="M4263 4438 c-15 -20 -25 -38 -20 -38 3 0 12 11 21 25 17 26 16 35 -1
13z"/>
<path d="M3843 4391 c-41 -49 -108 -140 -132 -180 -14 -22 -31 -43 -38 -45
-17 -7 -53 14 -53 31 0 7 -7 10 -15 7 -11 -5 -14 -2 -8 12 6 18 6 18 -15 0
-21 -19 -22 -18 -30 5 -8 22 -9 21 -16 -14 -5 -28 -12 -37 -27 -37 -26 0 -49
23 -49 49 0 12 -4 21 -10 21 -5 0 -10 12 -10 28 0 23 -4 18 -27 -28 -29 -62
-48 -84 -63 -75 -5 3 -10 2 -10 -3 0 -17 -66 -6 -86 14 -11 11 -31 37 -44 59
-25 41 -120 145 -99 108 19 -33 3 -40 -27 -12 l-25 24 11 -29 c6 -16 31 -69
55 -119 58 -116 59 -171 3 -120 -11 10 -19 13 -18 8 7 -36 -25 -56 -45 -28
-11 14 -15 15 -28 4 -14 -11 -19 -6 -41 36 -13 26 -34 54 -45 61 -27 16 -27
13 11 -61 17 -34 33 -68 34 -76 2 -7 7 -18 13 -24 30 -30 -7 -61 -38 -33 -13
12 -21 14 -26 7 -3 -6 1 -14 9 -17 30 -11 16 -23 -14 -13 -16 6 -30 14 -30 18
0 4 -15 15 -32 25 l-33 19 22 -24 c11 -13 31 -41 42 -63 25 -43 16 -67 -22
-59 -21 5 -21 4 3 -16 25 -20 25 -20 5 -35 -23 -18 -36 -15 -134 31 -45 22
-75 42 -78 54 -4 14 -14 19 -37 19 l-31 0 25 -20 c14 -11 56 -35 93 -52 45
-22 63 -34 52 -38 -13 -5 -10 -11 15 -35 16 -16 30 -33 30 -38 0 -6 7 -15 16
-22 12 -8 15 -20 11 -37 -5 -20 -15 -27 -44 -33 l-38 -7 27 -14 c23 -12 26
-18 18 -38 -7 -18 -5 -26 6 -30 25 -10 15 -34 -20 -46 -19 -6 -41 -10 -48 -9
-15 2 -88 -28 -88 -37 0 -3 14 -3 30 1 43 9 110 -3 110 -21 0 -8 -6 -14 -12
-14 -7 0 1 -7 19 -16 28 -14 30 -18 23 -45 -5 -16 -5 -29 -1 -29 5 0 6 -11 4
-25 -4 -18 -16 -28 -47 -38 -53 -18 -44 -33 17 -29 58 3 74 -19 36 -50 -22
-18 -22 -19 -2 -8 27 12 66 -7 58 -28 -3 -7 0 -10 5 -7 6 3 10 -1 10 -9 0 -8
-18 -30 -40 -47 -22 -18 -38 -34 -36 -36 2 -3 22 4 45 15 44 22 83 19 74 -4
-4 -10 3 -14 21 -14 24 0 29 -8 25 -36 0 -4 5 -10 12 -15 11 -6 10 -12 -4 -27
-12 -13 -14 -21 -6 -29 7 -7 -11 -29 -58 -73 -81 -74 -180 -150 -198 -150 -7
0 -24 -22 -38 -50 -14 -27 -25 -50 -23 -50 2 0 44 36 92 80 49 44 92 80 96 80
14 0 9 -16 -14 -46 l-22 -29 33 30 c18 16 54 64 81 105 50 78 91 116 125 115
17 0 20 -6 19 -47 -1 -39 2 -46 13 -37 10 9 13 8 13 -5 0 -9 5 -16 10 -16 15
0 12 -22 -9 -63 -10 -20 -15 -34 -10 -31 5 3 18 22 29 42 30 58 65 93 85 86
11 -5 15 -14 12 -30 -5 -27 5 -31 23 -9 16 19 40 19 40 0 0 -11 7 -14 25 -9
28 7 55 -14 56 -43 0 -16 1 -16 9 2 11 29 42 54 47 38 2 -7 11 -9 19 -6 8 3
14 -1 14 -11 0 -9 5 -16 10 -16 6 0 10 -9 10 -20 0 -11 7 -20 15 -20 8 0 15 6
15 13 0 21 45 55 81 62 31 6 35 3 51 -27 9 -18 28 -64 41 -103 37 -102 38
-105 51 -105 7 0 25 -27 41 -61 16 -33 33 -63 38 -66 5 -3 0 12 -11 33 -24 47
-79 219 -82 254 -5 59 0 90 15 90 8 0 12 6 9 14 -4 11 12 20 62 35 78 23 86
20 116 -44 19 -39 19 -39 14 -7 -3 17 -1 32 4 32 5 0 0 21 -12 46 -11 25 -16
50 -11 54 16 14 70 19 83 7 10 -10 12 -9 7 5 -5 13 -2 15 11 11 14 -5 14 -3
-3 16 -15 18 -16 24 -6 30 9 6 10 11 2 15 -8 5 -7 12 3 22 11 10 21 12 41 4
24 -9 25 -8 15 11 -9 16 -8 26 3 43 9 13 12 28 7 36 -9 14 4 32 32 43 12 4 15
14 12 33 -4 24 -3 26 21 20 17 -4 31 -1 41 9 15 14 14 17 -9 35 -20 16 -25 29
-25 65 0 40 2 46 26 52 14 3 52 2 84 -3 46 -8 69 -6 115 7 168 50 203 79 57
47 -48 -10 -117 -20 -153 -21 -57 -2 -66 0 -65 15 1 14 -4 17 -25 12 -20 -4
-23 -3 -11 5 8 6 25 11 38 11 l23 0 -23 30 c-12 17 -30 30 -40 30 -13 0 -18 8
-18 25 0 17 6 25 17 25 15 0 14 2 -3 15 -16 13 -17 16 -4 25 13 8 12 10 -5 10
-18 1 -17 2 5 15 l25 14 -35 1 c-54 1 -67 13 -46 44 9 14 21 26 26 26 6 0 10
6 10 13 0 7 21 18 46 25 27 7 70 32 102 59 l57 46 -45 -8 c-25 -3 -71 -20
-102 -36 -63 -32 -73 -35 -62 -17 5 8 2 9 -10 5 -65 -25 -88 -15 -61 26 8 13
12 27 8 30 -7 7 118 67 140 67 7 0 24 11 37 25 13 14 20 25 16 25 -11 0 19 47
53 84 47 52 -6 13 -99 -72 -49 -45 -91 -82 -94 -82 -12 0 -5 22 19 60 l25 40
-42 -17 c-24 -9 -56 -28 -73 -43 -16 -15 -36 -25 -43 -23 -7 3 -19 0 -26 -6
-30 -25 -67 20 -47 57 6 11 7 22 4 26 -3 3 -1 6 5 6 6 0 21 19 33 41 l21 42
-29 -20 c-15 -11 -53 -32 -83 -46 -64 -31 -81 -24 -62 26 11 31 11 31 -6 11
-36 -44 -68 -29 -62 30 1 13 -3 17 -14 13 -32 -12 -18 47 26 109 36 52 74 132
66 139 -2 2 -13 -9 -25 -24z"/>
<path d="M3161 4400 c0 -8 4 -24 9 -35 l9 -20 0 20 c0 11 -4 27 -9 35 -9 13
-10 13 -9 0z"/>
<path d="M4104 4348 l-19 -23 23 19 c21 18 27 26 19 26 -2 0 -12 -10 -23 -22z"/>
<path d="M4886 4336 c-30 -14 -44 -25 -35 -28 19 -7 50 6 73 31 23 25 24 25
-38 -3z"/>
<path d="M5383 4324 c-35 -19 -63 -38 -63 -40 0 -5 126 61 139 72 18 15 -25
-3 -76 -32z"/>
<path d="M4272 4268 c-18 -23 -32 -48 -32 -56 0 -9 1 -13 3 -11 47 63 77 109
70 109 -5 0 -23 -19 -41 -42z"/>
<path d="M4574 4242 c-53 -47 -144 -148 -123 -136 15 9 175 174 168 174 -2 0
-23 -17 -45 -38z"/>
<path d="M4122 4209 c-44 -63 -49 -76 -21 -56 14 11 74 117 66 117 -2 0 -22
-28 -45 -61z"/>
<path d="M3631 4214 c0 -11 3 -14 6 -6 3 7 2 16 -1 19 -3 4 -6 -2 -5 -13z"/>
<path d="M3286 4195 c4 -8 8 -15 10 -15 2 0 4 7 4 15 0 8 -4 15 -10 15 -5 0
-7 -7 -4 -15z"/>
<path d="M4905 4161 c-33 -16 -56 -30 -52 -30 21 -2 117 31 127 44 20 24 -7
19 -75 -14z"/>
<path d="M2835 4087 c28 -19 52 -33 54 -31 10 9 -45 52 -74 58 -26 6 -24 3 20
-27z"/>
<path d="M4735 4053 c-12 -2 -34 -15 -50 -29 l-30 -24 60 25 c79 34 84 41 20
28z"/>
<path d="M2689 4017 c12 -15 11 -17 -5 -18 -17 0 -16 -2 5 -17 38 -26 83 -44
75 -29 -13 22 -49 59 -69 70 -18 9 -19 9 -6 -6z"/>
<path d="M5000 3960 c-12 -8 -12 -10 5 -9 11 0 29 4 40 9 18 8 18 9 -5 9 -14
0 -32 -4 -40 -9z"/>
<path d="M2115 3910 c17 -4 39 -8 50 -8 16 0 15 2 -5 8 -14 4 -36 8 -50 8 -22
0 -22 -1 5 -8z"/>
<path d="M2431 3816 c2 -2 24 -6 48 -9 29 -4 40 -2 30 4 -13 8 -88 14 -78 5z"/>
<path d="M1695 3745 c28 -7 64 -13 80 -13 l30 0 -35 13 c-19 7 -55 13 -80 13
l-45 0 50 -13z"/>
<path d="M4482 3740 c-57 -10 -117 -27 -134 -38 l-31 -20 29 -5 c105 -20 122
-19 211 15 51 19 79 34 68 37 -17 3 -16 5 6 17 24 13 24 13 -11 13 -19 0 -81
-9 -138 -19z"/>
<path d="M4815 3720 c-19 -8 -19 -9 2 -9 29 -1 38 -17 16 -29 -12 -7 -3 -8 30
-5 57 7 62 -8 10 -31 l-38 -16 40 6 c22 4 42 11 45 15 3 4 21 15 40 23 l35 15
-44 7 c-40 6 -42 8 -26 21 17 11 12 13 -36 12 -30 0 -63 -4 -74 -9z"/>
<path d="M2580 3707 c0 -6 120 -47 134 -46 6 0 -11 8 -39 18 -76 27 -95 33
-95 28z"/>
<path d="M4550 3560 l-25 -8 25 0 c14 0 34 3 45 8 l20 9 -20 -1 c-11 0 -31 -4
-45 -8z"/>
<path d="M2114 3505 c-44 -10 -37 -11 58 -7 69 3 112 1 120 -6 10 -8 33 -6 83
4 38 8 70 16 71 17 8 8 -292 1 -332 -8z"/>
<path d="M2598 3503 c6 -2 18 -2 25 0 6 3 1 5 -13 5 -14 0 -19 -2 -12 -5z"/>
<path d="M5283 3463 c15 -2 37 -2 50 0 12 2 0 4 -28 4 -27 0 -38 -2 -22 -4z"/>
<path d="M4610 3434 c-58 -12 -121 -23 -140 -24 l-35 -2 30 -13 c17 -8 59 -14
95 -14 53 1 59 2 32 9 -18 4 -35 10 -38 13 -8 8 85 26 175 33 45 4 80 8 79 9
-17 13 -111 8 -198 -11z"/>
<path d="M2470 3363 c-25 -8 -83 -23 -130 -32 l-85 -18 70 2 c39 2 99 11 134
20 35 9 69 14 75 12 6 -3 31 4 56 14 l45 18 -60 -1 c-33 0 -80 -7 -105 -15z"/>
<path d="M4840 3348 c-32 -10 -33 -11 -12 -17 13 -3 24 -10 25 -15 1 -5 54 -9
119 -10 64 -1 114 1 111 4 -2 3 -21 10 -41 16 l-37 11 55 10 c51 10 47 11 -65
11 -66 0 -136 -5 -155 -10z"/>
<path d="M4385 3340 c4 -6 11 -8 16 -5 14 9 11 15 -7 15 -8 0 -12 -5 -9 -10z"/>
<path d="M2661 3321 c-19 -3 -36 -12 -39 -20 -4 -13 8 -11 66 10 20 8 31 21
15 18 -5 -1 -23 -4 -42 -8z"/>
<path d="M2190 3300 c-20 -6 -21 -8 -5 -8 11 0 31 4 45 8 20 6 21 8 5 8 -11 0
-31 -4 -45 -8z"/>
<path d="M4379 3235 c66 -36 101 -50 101 -42 0 8 -138 77 -152 77 -7 0 16 -16
51 -35z"/>
<path d="M4526 3231 c17 -10 56 -20 93 -23 71 -5 63 3 -25 26 -85 22 -107 21
-68 -3z"/>
<path d="M5115 3230 c44 -10 81 -17 83 -15 7 7 -95 35 -127 34 -27 -1 -16 -5
44 -19z"/>
<path d="M5310 3235 c72 -18 100 -17 35 1 -27 7 -59 13 -70 13 -11 0 5 -7 35
-14z"/>
<path d="M5420 3210 c14 -4 34 -8 45 -8 16 0 15 2 -5 8 -14 4 -34 8 -45 8 -16
0 -15 -2 5 -8z"/>
<path d="M2625 3150 c-22 -11 -58 -36 -80 -55 l-40 -35 32 9 c34 10 111 59
132 85 18 21 4 20 -44 -4z"/>
<path d="M1918 3133 c7 -3 16 -2 19 1 4 3 -2 6 -13 5 -11 0 -14 -3 -6 -6z"/>
<path d="M2713 3117 c-15 -13 -66 -50 -113 -82 -100 -68 -108 -75 -93 -75 6 0
50 29 98 65 48 36 93 65 100 65 8 0 27 11 42 25 38 33 6 35 -34 2z"/>
<path d="M4284 3060 c47 -44 63 -53 135 -71 107 -27 135 -20 40 10 -40 13
-104 43 -141 67 -37 24 -72 44 -77 44 -6 0 14 -23 43 -50z"/>
<path d="M2294 3004 c-120 -80 -136 -94 -68 -60 77 38 200 125 178 126 -6 0
-55 -30 -110 -66z"/>
<path d="M4407 3059 c7 -7 15 -10 18 -7 3 3 -2 9 -12 12 -14 6 -15 5 -6 -5z"/>
<path d="M4698 2993 c7 -3 16 -2 19 1 4 3 -2 6 -13 5 -11 0 -14 -3 -6 -6z"/>
<path d="M4548 2963 c7 -3 16 -2 19 1 4 3 -2 6 -13 5 -11 0 -14 -3 -6 -6z"/>
<path d="M1960 2945 c-14 -8 -20 -14 -15 -14 6 0 21 6 35 14 14 8 21 14 15 14
-5 0 -21 -6 -35 -14z"/>
<path d="M2595 2940 c-19 -7 -74 -60 -63 -60 22 0 70 26 79 42 13 24 10 28
-16 18z"/>
<path d="M1905 2855 c-66 -29 -144 -67 -173 -84 -30 -17 -107 -59 -173 -92
-65 -33 -119 -62 -119 -64 0 -4 3 -3 210 73 111 41 158 65 264 136 71 47 125
86 120 85 -5 0 -63 -25 -129 -54z"/>
<path d="M4137 2867 c21 -33 37 -46 74 -58 l48 -15 -31 38 c-28 36 -68 66 -68
52 0 -3 -11 1 -25 10 l-24 16 26 -43z"/>
<path d="M4880 2860 c25 -17 59 -38 75 -46 l30 -14 -25 17 c-14 10 -34 28 -45
40 -12 12 -34 25 -51 28 -26 6 -25 4 16 -25z"/>
<path d="M2626 2831 c-4 -5 -59 -45 -124 -89 -96 -65 -182 -140 -182 -157 0
-12 132 74 178 116 30 27 57 48 59 45 3 -3 -4 -22 -16 -43 -12 -21 -14 -27 -4
-13 10 14 44 53 77 88 49 51 55 62 38 62 -11 0 -23 -4 -26 -9z"/>
<path d="M2800 2825 c-20 -24 -6 -28 15 -5 10 11 13 20 8 20 -6 0 -16 -7 -23
-15z"/>
<path d="M2300 2795 c-30 -19 -49 -35 -42 -35 13 0 102 57 102 65 0 7 -2 7
-60 -30z"/>
<path d="M5090 2816 c0 -2 7 -7 16 -10 8 -3 12 -2 9 4 -6 10 -25 14 -25 6z"/>
<path d="M4195 2770 c23 -46 55 -80 75 -80 8 0 25 -7 38 -15 42 -30 13 10 -41
56 -95 81 -93 79 -72 39z"/>
<path d="M5175 2772 c14 -14 145 -85 150 -81 2 2 -33 24 -78 48 -45 24 -77 39
-72 33z"/>
<path d="M3093 2738 c-15 -20 -25 -38 -20 -38 3 0 12 11 21 25 17 26 16 35 -1
13z"/>
<path d="M4166 2736 c7 -17 54 -51 54 -38 0 9 -25 33 -47 46 -9 5 -11 2 -7 -8z"/>
<path d="M4680 2735 c13 -16 100 -69 105 -63 7 7 -33 46 -63 62 -40 21 -59 21
-42 1z"/>
<path d="M2967 2710 c-25 -35 -21 -58 4 -26 11 14 19 31 17 38 -3 7 -11 2 -21
-12z"/>
<path d="M4605 2687 c30 -27 36 -36 22 -37 -28 0 -15 -12 85 -80 l93 -63 -88
90 c-48 49 -102 97 -120 108 -30 17 -29 15 8 -18z"/>
<path d="M4100 2706 c0 -2 8 -10 18 -17 15 -13 16 -12 3 4 -13 16 -21 21 -21
13z"/>
<path d="M2811 2674 c-12 -15 -21 -32 -21 -38 1 -11 24 15 41 47 14 25 3 21
-20 -9z"/>
<path d="M1908 2619 c-38 -22 -68 -42 -68 -45 0 -7 89 42 120 66 39 31 21 23
-52 -21z"/>
<path d="M2479 2623 l-24 -28 28 24 c25 23 32 31 24 31 -2 0 -14 -12 -28 -27z"/>
<path d="M3660 2581 c0 -35 12 -79 38 -142 l37 -92 3 50 c2 39 -5 71 -34 142
-20 50 -38 91 -40 91 -2 0 -4 -22 -4 -49z"/>
<path d="M3341 2601 c-8 -5 -9 -11 -3 -15 5 -3 12 1 16 9 6 17 6 18 -13 6z"/>
<path d="M3870 2567 c6 -42 90 -177 90 -146 1 9 8 6 20 -10 27 -31 25 -20 -6
41 -22 43 -101 158 -109 158 -1 0 1 -19 5 -43z"/>
<path d="M4226 2584 c3 -16 27 -49 52 -74 26 -27 42 -37 37 -25 -4 11 -8 29
-10 39 -1 11 -21 35 -44 55 l-42 35 7 -30z"/>
<path d="M3012 2540 c-12 -19 -22 -42 -23 -50 -5 -59 -7 -83 -14 -107 -9 -37
-7 -34 54 82 33 62 46 93 33 82 -20 -18 -20 -18 -24 5 -3 22 -5 21 -26 -12z"/>
<path d="M3411 2509 c0 -39 6 -85 16 -115 l17 -49 7 35 c6 35 6 35 17 10 10
-23 11 -22 11 17 1 31 -3 41 -14 39 -8 -1 -18 -6 -22 -10 -4 -4 -13 25 -19 66
l-11 73 -2 -66z"/>
<path d="M5110 2519 c24 -21 340 -183 340 -175 0 6 -156 105 -182 115 -13 5
-59 25 -103 45 -60 27 -74 31 -55 15z"/>
<path d="M2862 2447 c-18 -39 -26 -65 -18 -57 15 16 59 120 53 126 -2 2 -18
-29 -35 -69z"/>
<path d="M4493 2354 c28 -48 84 -121 122 -162 39 -41 86 -97 105 -125 19 -27
50 -61 68 -75 25 -20 15 -1 -45 79 -43 57 -109 150 -147 206 -58 87 -127 163
-150 163 -3 0 18 -39 47 -86z"/>
<path d="M4030 2404 c42 -49 44 -50 24 -15 -11 19 -26 36 -34 39 -9 3 -5 -7
10 -24z"/>
<path d="M3880 2412 c0 -4 16 -47 36 -96 20 -48 33 -94 30 -101 -5 -15 62
-207 90 -260 79 -145 96 -175 99 -175 7 0 -34 118 -62 181 -17 36 -34 76 -38
90 l-8 24 22 -20 22 -19 -10 24 c-20 53 -170 360 -175 360 -4 0 -6 -4 -6 -8z"/>
<path d="M5017 2379 c24 -24 57 -53 75 -63 39 -22 34 -17 -52 54 -65 53 -65
54 -23 9z"/>
<path d="M2715 2383 l-17 -28 23 22 c12 12 20 25 17 28 -3 3 -13 -7 -23 -22z"/>
<path d="M3785 2320 c3 -19 9 -62 14 -96 5 -33 21 -87 35 -120 24 -55 37 -64
17 -11 -5 13 -19 71 -31 128 -22 103 -46 171 -35 99z"/>
<path d="M2314 2318 c-37 -42 -47 -58 -36 -58 6 0 25 18 42 40 33 42 28 57 -6
18z"/>
<path d="M2646 2314 c-5 -14 -4 -15 9 -4 17 14 19 20 6 20 -5 0 -12 -7 -15
-16z"/>
<path d="M2630 2209 c-52 -60 -107 -135 -123 -166 l-28 -58 26 30 c14 17 63
72 108 123 69 79 126 167 114 178 -1 1 -45 -46 -97 -107z"/>
<path d="M2089 2203 c-34 -36 -37 -42 -14 -26 36 25 70 61 63 68 -2 2 -24 -16
-49 -42z"/>
<path d="M4370 2220 c12 -16 24 -30 26 -30 3 0 -4 14 -16 30 -12 17 -24 30
-26 30 -3 0 4 -13 16 -30z"/>
<path d="M3232 2220 c0 -14 2 -19 5 -12 2 6 2 18 0 25 -3 6 -5 1 -5 -13z"/>
<path d="M2971 2204 c0 -11 3 -14 6 -6 3 7 2 16 -1 19 -3 4 -6 -2 -5 -13z"/>
<path d="M3571 2155 c0 -27 4 -57 9 -65 12 -19 12 52 0 90 -6 20 -8 15 -9 -25z"/>
<path d="M4345 2051 c17 -58 38 -95 85 -146 28 -30 50 -52 50 -48 0 5 -32 55
-71 113 -39 58 -67 94 -64 81z"/>
<path d="M3610 1975 c0 -14 4 -25 9 -25 4 0 6 11 3 25 -2 14 -6 25 -8 25 -2 0
-4 -11 -4 -25z"/>
<path d="M3077 1786 c-15 -57 -27 -112 -26 -122 0 -11 8 10 16 45 9 37 18 59
23 52 4 -7 10 18 13 55 4 37 5 69 4 71 -2 1 -15 -44 -30 -101z"/>
<path d="M2926 1764 c-24 -60 -66 -218 -66 -247 1 -7 16 29 35 78 33 86 70
224 62 231 -2 2 -16 -26 -31 -62z"/>
<path d="M4655 1743 c16 -28 42 -66 57 -85 16 -18 6 3 -22 47 -61 95 -74 109
-35 38z"/>
<path d="M3158 1695 c-4 -16 -9 -77 -12 -135 l-5 -105 15 65 c8 36 13 97 12
135 -2 53 -5 63 -10 40z"/>
<path d="M2664 1527 c-45 -81 -140 -315 -131 -323 1 -2 22 43 46 99 25 56 68
150 97 210 29 59 50 107 46 107 -4 -1 -30 -42 -58 -93z"/>
<path d="M2771 1414 c0 -11 3 -14 6 -6 3 7 2 16 -1 19 -3 4 -6 -2 -5 -13z"/>
<path d="M2516 1175 c-9 -26 -7 -32 5 -12 6 10 9 21 6 23 -2 3 -7 -2 -11 -11z"/>
</g>
</svg>
